<svg width="259" height="259" viewBox="0 0 259 259" fill="none" xmlns="http://www.w3.org/2000/svg">
<path d="M221.385 0C241.819 1.59303e-07 258.385 16.5655 258.385 37V221.385C258.385 241.819 241.819 258.385 221.385 258.385H37C16.5655 258.385 1.59313e-07 241.819 0 221.385V37C1.59313e-07 16.5655 16.5655 1.59303e-07 37 0H221.385Z" fill="url(#paint0_linear_3_57)"/>
<path d="M221.385 0C241.819 1.59303e-07 258.385 16.5655 258.385 37V221.385C258.385 241.819 241.819 258.385 221.385 258.385H37C16.5655 258.385 1.59313e-07 241.819 0 221.385V37C1.59313e-07 16.5655 16.5655 1.59303e-07 37 0H221.385Z" stroke="black"/>
<path d="M27.0714 179.829V88.9574H47.0264V124.569H84.4804V88.9574H104.435V179.829H84.4804V142.13H47.0264V179.829H27.0714ZM124.023 179.829L100.016 88.9574H120.216L140.724 171.049H135.75L157.67 88.9574H179.713L200.896 171.049H196.291L217.29 88.9574H236.201L212.193 179.829H186.59L165.898 101.115H171.178L149.627 179.829H124.023Z" fill="white"/>
<defs>
<linearGradient id="paint0_linear_3_57" x1="0.38567" y1="543.447" x2="1087.02" y2="543.447" gradientUnits="userSpaceOnUse">
<stop stop-color="#D13A2F"/>
<stop offset="0.197115" stop-color="#E88D53"/>
</linearGradient>
</defs>
</svg>
